# xmcd
#
# Track frame offsets: 
#        150
#        13142
#        30961
#        43821
#        58695
#        86103
#        100720
#        112687
#        124609
#        152285
#
# Disc length: 2343 seconds
#
# Revision: 0
# Processed by: cddbd v1.5.1PL0 Copyright (c) Steve Scherf et al.
# Submitted via: ExactAudioCopy v0.95a5
#
DISCID=6b09250a
DTITLE=Wes McGhee - Landing Lights
DYEAR=1981
DGENRE=Country
TTITLE0=(They used to say) Train Time
TTITLE1=Contrabandistas
TTITLE2=Too High To Sing The Blues
TTITLE3=Ain't That Lovin' You Baby
TTITLE4=Neon And Dust
TTITLE5=Boys In The Band (Taught the girl how to boogie)
TTITLE6=No Angel On My Wing
TTITLE7=Texas Fever
TTITLE8=Mailman (Bring me no more blues)
TTITLE9=Heat Of The Highway
EXTD=(c)1981 TRP Records * TRP 843
EXTT0=
EXTT1=
EXTT2=
EXTT3=
EXTT4=
EXTT5=
EXTT6=
EXTT7=
EXTT8=
EXTT9=
PLAYORDER=
